<svg id="ALPS_LOGO_WHITE" data-name="ALPS LOGO WHITE" xmlns="http://www.w3.org/2000/svg" xmlns:xlink="http://www.w3.org/1999/xlink" width="69.814" height="88.297" viewBox="0 0 69.814 88.297">
  <defs>
    <clipPath id="clip-path">
      <rect id="Rectangle_78" data-name="Rectangle 78" width="69.814" height="88.297" fill="#3e4267"/>
    </clipPath>
  </defs>
  <g id="Group_31" data-name="Group 31" clip-path="url(#clip-path)">
    <path id="Path_8" data-name="Path 8" d="M2.408,14.472c-2.592,7.676.6,17.4,6.483,23.208l38.2,35.035a70.431,70.431,0,0,1,11.17,13.1l1.173,1.777.072-.081A37.625,37.625,0,0,0,67.89,73.116c2.59-7.676-.6-17.4-6.484-23.208l-38.2-35.033A70.424,70.424,0,0,1,12.04,1.775L10.867,0l-.072.081A37.408,37.408,0,0,0,2.408,14.472" transform="translate(1.015 0)" fill="#3e4267"/>
    <path id="Path_9" data-name="Path 9" d="M45.2,38.446C64.018,11.773,44.178,15.346,35.2,0c0,0-15.83,10.915-9.164,21.757,3.631,7.367,16.887,9.917,19.172,16.689" transform="translate(16.533 0)" fill="#3e4267"/>
    <path id="Path_10" data-name="Path 10" d="M1.2,69.712c21.487,7.278,41.071-15.043,13.164-34.4-9.5-7.209-8.528-9.976-8.528-9.976C-8.692,46.876,9.526,57.22,1.2,69.712" transform="translate(0 17.174)" fill="#3e4267"/>
  </g>
</svg>
